# xmcd
#
# Track frame offsets:
#	150
#	18200
#	36875
#	54125
#	71075
#	85325
#	100625
#	116300
#	137225
#	156575
#	173000
#	193062
#	203600
#	216050
#
# Disc length: 3029 seconds
#
# Revision: 4
# Processed by: cddbd v1.5.2PL0 Copyright (c) Steve Scherf et al.
# Submitted via: EasyCDDAExtractor 12.1.0.1
#
DISCID=b80bd30e
DTITLE=Paul Anka - Freedom for the world
DYEAR=1987
DGENRE=Dance
TTITLE0=Freedom for the world
TTITLE1=It hurts to see you cry
TTITLE2=Having my baby
TTITLE3=Forever we'll be in love
TTITLE4=Put your head on my shoulder
TTITLE5=Too young to die
TTITLE6=Someday
TTITLE7=My way
TTITLE8=Hold me 'til the morning comes
TTITLE9=Bring the wine
TTITLE10=Until the day we said goodbye
TTITLE11=Diana
TTITLE12=Puppy love
TTITLE13=You are my destiny
EXTD=
EXTT0=
EXTT1=
EXTT2=
EXTT3=
EXTT4=
EXTT5=
EXTT6=
EXTT7=
EXTT8=
EXTT9=
EXTT10=
EXTT11=
EXTT12=
EXTT13=
PLAYORDER=
